<svg version="1.1" id="Layer_1" xmlns="http://www.w3.org/2000/svg" xmlns:xlink="http://www.w3.org/1999/xlink" x="0px" y="0px"
	 width="100%" viewBox="0 0 274 274" enable-background="new 0 0 274 274" xml:space="preserve">
<path fill="#000000" opacity="1.000000" stroke="none" 
	d="
M1.000001,270.000000 
	C1.000000,180.333328 1.000000,90.666664 1.000000,1.000000 
	C92.333336,1.000000 183.666672,1.000000 275.000000,1.000000 
	C275.000000,92.333336 275.000000,183.666672 275.000000,275.000000 
	C185.000000,275.000000 94.999985,275.010071 5.000130,274.896667 
	C3.747092,274.895111 0.685187,276.962952 1.217242,272.148682 
	C2.567957,271.515381 3.755533,272.068970 4.826033,271.896362 
	C11.301332,270.852417 17.592001,270.027313 24.344364,271.058716 
	C27.402945,271.525940 32.335564,271.732941 35.464695,267.254211 
	C42.647972,256.972778 50.597305,247.224640 58.310310,237.318130 
	C59.067959,236.345016 60.288822,235.229691 61.387737,235.121002 
	C64.483459,234.814758 67.627708,234.993179 70.752831,234.991287 
	C78.271118,234.986725 85.789406,234.986649 93.307693,234.987610 
	C132.128616,234.992508 170.949554,234.998337 209.770477,235.003784 
	C211.773239,235.004059 213.776001,235.003830 216.187149,235.003830 
	C213.540665,231.743637 210.942184,229.152908 209.072891,226.113708 
	C205.091522,219.640579 200.320648,215.347122 191.970688,216.918274 
	C188.746292,217.525009 185.332092,217.123123 181.631378,217.110321 
	C180.503830,217.088654 179.749252,217.137405 178.535995,217.108276 
	C173.724945,217.079865 169.372589,217.129318 164.621521,217.107224 
	C163.147034,217.083603 162.071213,217.131531 160.602356,217.101288 
	C159.145828,217.072723 158.082336,217.122314 156.604248,217.101044 
	C154.791931,217.078278 153.394211,217.126358 151.603027,217.098022 
	C150.145920,217.072540 149.082245,217.123474 147.643951,217.104050 
	C146.511414,217.081619 145.753494,217.129562 144.536926,217.099243 
	C139.725449,217.073471 135.372620,217.125977 130.684937,217.108307 
	C129.898758,217.085190 129.447449,217.132233 128.669418,217.103348 
	C127.901283,217.078445 127.459885,217.129486 126.644081,217.109619 
	C125.512199,217.087265 124.754730,217.135849 123.751030,217.117218 
	C123.340759,217.095184 123.176712,217.140350 122.558434,217.113678 
	C118.734833,217.087433 115.365479,217.133041 111.670120,217.101624 
	C110.902824,217.072495 110.461525,217.120392 109.555267,217.095810 
	C96.729263,217.071564 84.368240,217.119797 71.691322,217.009064 
	C74.426079,212.223038 77.394928,207.537354 80.620483,203.035629 
	C81.074974,202.401306 82.786263,202.525009 83.910881,202.547272 
	C85.541267,202.579529 87.167038,202.979477 88.794983,202.980896 
	C121.114540,203.009064 153.434128,203.006149 185.753708,202.992035 
	C187.477310,202.991287 189.200851,202.836472 191.932968,202.704758 
	C189.030945,198.922470 186.458649,196.128143 184.543915,192.939041 
	C181.896530,188.529724 178.271759,187.424255 173.420044,187.902878 
	C170.015869,188.238708 166.525726,187.615234 163.071487,187.548386 
	C153.637558,187.365814 144.202286,187.153671 134.767609,187.156677 
	C130.889786,187.157928 127.011932,187.917053 123.134468,187.913528 
	C116.488472,187.907501 109.843712,187.482468 103.196548,187.412216 
	C99.525299,187.373413 95.850197,187.698242 91.401474,187.893112 
	C93.610077,184.686340 95.015450,181.865234 97.147835,179.791824 
	C98.916718,178.071869 101.529556,176.191376 103.789757,176.164444 
	C126.155724,175.897995 148.526123,176.003235 171.017380,176.003235 
	C170.919601,175.156036 171.147079,173.923416 170.637115,173.245712 
	C167.990356,169.728409 165.212204,166.303665 162.334991,162.971756 
	C161.802200,162.354782 160.612793,162.068253 159.713531,162.039978 
	C147.437653,161.654037 135.160858,161.210892 122.881142,161.081680 
	C118.783745,161.038559 114.677414,161.844177 109.876770,162.332916 
	C111.436424,160.029434 112.167755,158.537064 113.269424,157.405151 
	C115.832611,154.771606 117.756744,151.633926 122.531082,151.853104 
	C132.616623,152.316055 142.738190,151.994049 153.057159,151.994049 
	C143.400436,140.099548 133.582428,128.006378 123.693604,115.825989 
	C119.971939,120.628273 116.694717,124.884659 113.388313,129.118256 
	C104.255501,140.812088 95.076157,152.469772 85.980484,164.192383 
	C77.787605,174.751480 69.704811,185.395905 61.530579,195.969559 
	C51.360508,209.124924 41.164654,222.260483 30.945812,235.378021 
	C22.106747,246.724365 13.250345,258.057800 4.279305,269.299377 
	C3.740159,269.974976 2.118137,269.786438 1.000001,270.000000 
M251.579178,73.044296 
	C244.085403,81.186577 236.594421,89.331421 229.096756,97.470108 
	C225.015625,101.900146 221.925232,106.476845 222.857544,113.162430 
	C223.573578,118.297165 223.000122,123.611725 223.000122,129.334274 
	C221.001205,126.896492 218.924347,124.514603 217.012985,122.006577 
	C208.650574,111.033646 200.450851,99.934761 191.973312,89.052017 
	C182.755066,77.218399 173.396286,65.490501 163.912872,53.868214 
	C153.508392,41.117134 143.669327,27.773590 132.163055,16.087122 
	C118.935921,2.652831 101.359192,1.760754 83.928101,4.798484 
	C72.269463,6.830245 62.870720,13.402034 55.361057,22.980083 
	C47.228268,33.352875 42.132748,44.702084 42.082451,57.829315 
	C41.899864,105.482445 42.004692,153.136673 42.001129,200.790482 
	C42.001038,202.026764 42.001122,203.263046 42.001122,204.904465 
	C43.959583,203.106583 45.607872,201.959702 46.791958,200.448959 
	C57.043922,187.368881 67.149704,174.173965 77.431313,161.117447 
	C82.851555,154.234344 87.792732,147.695663 86.820572,137.802185 
	C85.757866,126.987228 86.448601,115.991859 86.516136,105.075996 
	C86.600967,91.364983 86.980721,77.654106 86.913109,63.944752 
	C86.889397,59.138527 89.510582,56.294846 93.327621,55.447720 
	C97.238365,54.579792 101.807053,53.410477 105.219124,57.668575 
	C113.401131,67.879349 121.781075,77.931221 130.005157,88.108627 
	C140.068100,100.561623 150.048691,113.081116 160.074066,125.564499 
	C166.761490,133.891556 173.474319,142.198242 180.158539,150.527863 
	C187.011398,159.067612 193.845352,167.622528 200.683853,176.173782 
	C209.862000,187.650665 219.139236,199.050415 228.170303,210.641922 
	C232.834961,216.629059 240.393524,219.663589 247.955292,217.937912 
	C253.936691,216.572906 259.584259,209.585205 260.180664,202.416931 
	C260.548340,197.997940 260.645172,193.542740 260.601044,189.106430 
	C260.538544,182.825851 260.067657,176.547699 260.067688,170.268509 
	C260.067719,157.864227 260.390350,145.459686 260.363983,133.055725 
	C260.318787,111.792580 260.113129,90.529739 259.954895,69.266930 
	C259.944733,67.900726 259.763580,66.535797 259.563049,63.840214 
	C256.497070,67.407692 254.290985,69.974594 251.579178,73.044296 
M212.559784,68.059471 
	C208.007568,73.771477 203.455353,79.483482 198.680374,85.474998 
	C199.845062,86.101730 200.655426,86.910988 201.475510,86.920975 
	C209.128006,87.014175 216.792038,87.177216 224.428665,86.814095 
	C226.240921,86.727936 228.332962,85.073349 229.661118,83.576576 
	C234.824570,77.757484 239.686646,71.672371 244.748627,65.761398 
	C249.402908,60.326488 254.280670,55.077484 258.771545,49.513771 
	C259.468933,48.649811 259.203613,46.077473 258.404083,45.080875 
	C250.551270,35.292423 242.062790,25.984560 234.651520,15.882374 
	C230.266754,9.905591 226.363220,5.593165 217.993851,6.391970 
	C208.795090,7.269934 199.447830,6.592069 188.704102,6.592069 
	C193.744553,12.738614 197.834778,17.776316 201.979431,22.768824 
	C208.177582,30.234915 214.621933,37.509911 220.518509,45.205662 
	C222.512527,47.808075 227.281281,50.244061 223.648544,54.819748 
	C220.220093,59.138115 216.594955,63.300335 212.559784,68.059471 
z"/>
<path fill="#01C2FE" opacity="1.000000" stroke="none" 
	d="
M1.000001,270.333344 
	C2.118137,269.786438 3.740159,269.974976 4.279305,269.299377 
	C13.250345,258.057800 22.106747,246.724365 30.945812,235.378021 
	C41.164654,222.260483 51.360508,209.124924 61.530579,195.969559 
	C69.704811,185.395905 77.787605,174.751480 85.980484,164.192383 
	C95.076157,152.469772 104.255501,140.812088 113.388313,129.118256 
	C116.694717,124.884659 119.971939,120.628273 123.693604,115.825989 
	C133.582428,128.006378 143.400436,140.099548 153.057159,151.994049 
	C142.738190,151.994049 132.616623,152.316055 122.531082,151.853104 
	C117.756744,151.633926 115.832611,154.771606 113.269424,157.405151 
	C112.167755,158.537064 111.436424,160.029434 109.876770,162.332916 
	C114.677414,161.844177 118.783745,161.038559 122.881142,161.081680 
	C135.160858,161.210892 147.437653,161.654037 159.713531,162.039978 
	C160.612793,162.068253 161.802200,162.354782 162.334991,162.971756 
	C165.212204,166.303665 167.990356,169.728409 170.637115,173.245712 
	C171.147079,173.923416 170.919601,175.156036 171.017380,176.003235 
	C148.526123,176.003235 126.155724,175.897995 103.789757,176.164444 
	C101.529556,176.191376 98.916718,178.071869 97.147835,179.791824 
	C95.015450,181.865234 93.610077,184.686340 91.401474,187.893112 
	C95.850197,187.698242 99.525299,187.373413 103.196548,187.412216 
	C109.843712,187.482468 116.488472,187.907501 123.134468,187.913528 
	C127.011932,187.917053 130.889786,187.157928 134.767609,187.156677 
	C144.202286,187.153671 153.637558,187.365814 163.071487,187.548386 
	C166.525726,187.615234 170.015869,188.238708 173.420044,187.902878 
	C178.271759,187.424255 181.896530,188.529724 184.543915,192.939041 
	C186.458649,196.128143 189.030945,198.922470 191.932968,202.704758 
	C189.200851,202.836472 187.477310,202.991287 185.753708,202.992035 
	C153.434128,203.006149 121.114540,203.009064 88.794983,202.980896 
	C87.167038,202.979477 85.541267,202.579529 83.910881,202.547272 
	C82.786263,202.525009 81.074974,202.401306 80.620483,203.035629 
	C77.394928,207.537354 74.426079,212.223038 71.863617,217.351074 
	C74.393837,218.235077 76.435303,218.948654 78.478004,218.952164 
	C117.208351,219.018753 155.938843,219.001572 194.669312,219.001801 
	C196.185379,219.001816 197.701431,219.001785 199.217499,219.001785 
	C199.210571,218.810425 199.203659,218.619080 199.196732,218.427719 
	C193.465942,218.012054 187.735153,217.596405 182.004364,217.180740 
	C185.332092,217.123123 188.746292,217.525009 191.970688,216.918274 
	C200.320648,215.347122 205.091522,219.640579 209.072891,226.113708 
	C210.942184,229.152908 213.540665,231.743637 216.187149,235.003830 
	C213.776001,235.003830 211.773239,235.004059 209.770477,235.003784 
	C170.949554,234.998337 132.128616,234.992508 93.307693,234.987610 
	C85.789406,234.986649 78.271118,234.986725 70.752831,234.991287 
	C67.627708,234.993179 64.483459,234.814758 61.387737,235.121002 
	C60.288822,235.229691 59.067959,236.345016 58.310310,237.318130 
	C50.597305,247.224640 42.647972,256.972778 35.464695,267.254211 
	C32.335564,271.732941 27.402945,271.525940 24.344364,271.058716 
	C17.592001,270.027313 11.301332,270.852417 4.826033,271.896362 
	C3.755533,272.068970 2.567957,271.515381 1.217242,271.648682 
	C1.000000,271.555542 1.000000,271.111115 1.000001,270.333344 
z"/>
<path fill="#01C2FE" opacity="1.000000" stroke="none" 
	d="
M251.832031,72.792900 
	C254.290985,69.974594 256.497070,67.407692 259.563049,63.840214 
	C259.763580,66.535797 259.944733,67.900726 259.954895,69.266930 
	C260.113129,90.529739 260.318787,111.792580 260.363983,133.055725 
	C260.390350,145.459686 260.067719,157.864227 260.067688,170.268509 
	C260.067657,176.547699 260.538544,182.825851 260.601044,189.106430 
	C260.645172,193.542740 260.548340,197.997940 260.180664,202.416931 
	C259.584259,209.585205 253.936691,216.572906 247.955292,217.937912 
	C240.393524,219.663589 232.834961,216.629059 228.170303,210.641922 
	C219.139236,199.050415 209.862000,187.650665 200.683853,176.173782 
	C193.845352,167.622528 187.011398,159.067612 180.158539,150.527863 
	C173.474319,142.198242 166.761490,133.891556 160.074066,125.564499 
	C150.048691,113.081116 140.068100,100.561623 130.005157,88.108627 
	C121.781075,77.931221 113.401131,67.879349 105.219124,57.668575 
	C101.807053,53.410477 97.238365,54.579792 93.327621,55.447720 
	C89.510582,56.294846 86.889397,59.138527 86.913109,63.944752 
	C86.980721,77.654106 86.600967,91.364983 86.516136,105.075996 
	C86.448601,115.991859 85.757866,126.987228 86.820572,137.802185 
	C87.792732,147.695663 82.851555,154.234344 77.431313,161.117447 
	C67.149704,174.173965 57.043922,187.368881 46.791958,200.448959 
	C45.607872,201.959702 43.959583,203.106583 42.001122,204.904465 
	C42.001122,203.263046 42.001038,202.026764 42.001129,200.790482 
	C42.004692,153.136673 41.899864,105.482445 42.082451,57.829315 
	C42.132748,44.702084 47.228268,33.352875 55.361057,22.980083 
	C62.870720,13.402034 72.269463,6.830245 83.928101,4.798484 
	C101.359192,1.760754 118.935921,2.652831 132.163055,16.087122 
	C143.669327,27.773590 153.508392,41.117134 163.912872,53.868214 
	C173.396286,65.490501 182.755066,77.218399 191.973312,89.052017 
	C200.450851,99.934761 208.650574,111.033646 217.012985,122.006577 
	C218.924347,124.514603 221.001205,126.896492 223.000122,129.334274 
	C223.000122,123.611725 223.573578,118.297165 222.857544,113.162430 
	C221.925232,106.476845 225.015625,101.900146 229.096756,97.470108 
	C236.594421,89.331421 244.085403,81.186577 251.832031,72.792900 
z"/>
<path fill="#FC5D24" opacity="1.000000" stroke="none" 
	d="
M212.808060,67.795357 
	C216.594955,63.300335 220.220093,59.138115 223.648544,54.819748 
	C227.281281,50.244061 222.512527,47.808075 220.518509,45.205662 
	C214.621933,37.509911 208.177582,30.234915 201.979431,22.768824 
	C197.834778,17.776316 193.744553,12.738614 188.704102,6.592069 
	C199.447830,6.592069 208.795090,7.269934 217.993851,6.391970 
	C226.363220,5.593165 230.266754,9.905591 234.651520,15.882374 
	C242.062790,25.984560 250.551270,35.292423 258.404083,45.080875 
	C259.203613,46.077473 259.468933,48.649811 258.771545,49.513771 
	C254.280670,55.077484 249.402908,60.326488 244.748627,65.761398 
	C239.686646,71.672371 234.824570,77.757484 229.661118,83.576576 
	C228.332962,85.073349 226.240921,86.727936 224.428665,86.814095 
	C216.792038,87.177216 209.128006,87.014175 201.475510,86.920975 
	C200.655426,86.910988 199.845062,86.101730 198.680374,85.474998 
	C203.455353,79.483482 208.007568,73.771477 212.808060,67.795357 
z"/>
<path fill="#01CFFF" opacity="1.000000" stroke="none" 
	d="
M181.631378,217.110321 
	C187.735153,217.596405 193.465942,218.012054 199.196732,218.427719 
	C199.203659,218.619080 199.210571,218.810425 199.217499,219.001785 
	C197.701431,219.001785 196.185379,219.001816 194.669312,219.001801 
	C155.938843,219.001572 117.208351,219.018753 78.478004,218.952164 
	C76.435303,218.948654 74.393837,218.235077 72.179504,217.510040 
	C84.368240,217.119797 96.729263,217.071564 109.730103,217.239655 
	C110.911980,217.363525 111.454048,217.271088 111.996117,217.178650 
	C115.365479,217.133041 118.734833,217.087433 122.667770,217.206696 
	C123.231346,217.371552 123.642578,217.410736 123.642578,217.410736 
	C123.642578,217.410736 123.997253,217.184433 123.997253,217.184433 
	C124.754730,217.135849 125.512199,217.087265 126.820282,217.251617 
	C127.912643,217.369461 128.454391,217.274384 128.996155,217.179291 
	C129.447449,217.132233 129.898758,217.085190 131.040527,217.303894 
	C136.152527,217.438934 140.574051,217.308212 144.995590,217.177490 
	C145.753494,217.129562 146.511414,217.081619 147.899292,217.278717 
	C149.685013,217.407318 150.840759,217.290878 151.996490,217.174438 
	C153.394211,217.126358 154.791931,217.078278 156.859222,217.275787 
	C158.684341,217.407410 159.839874,217.293442 160.995407,217.179459 
	C162.071213,217.131531 163.147034,217.083603 164.977203,217.302475 
	C170.152603,217.441574 174.573639,217.313858 178.994675,217.186157 
	C179.749252,217.137405 180.503830,217.088654 181.631378,217.110321 
z"/>
<path fill="#01C2FE" opacity="1.000000" stroke="none" 
	d="
M144.536926,217.099228 
	C140.574051,217.308212 136.152527,217.438934 131.375397,217.374054 
	C135.372620,217.125977 139.725449,217.073471 144.536926,217.099228 
z"/>
<path fill="#01C2FE" opacity="1.000000" stroke="none" 
	d="
M178.535995,217.108276 
	C174.573639,217.313858 170.152603,217.441574 165.375885,217.374023 
	C169.372589,217.129318 173.724945,217.079865 178.535995,217.108276 
z"/>
<path fill="#01C2FE" opacity="1.000000" stroke="none" 
	d="
M151.603027,217.098022 
	C150.840759,217.290878 149.685013,217.407318 148.273926,217.349091 
	C149.082245,217.123474 150.145920,217.072540 151.603027,217.098022 
z"/>
<path fill="#01C2FE" opacity="1.000000" stroke="none" 
	d="
M160.602356,217.101288 
	C159.839874,217.293442 158.684341,217.407410 157.273834,217.346649 
	C158.082336,217.122314 159.145828,217.072723 160.602356,217.101288 
z"/>
<path fill="#01C2FE" opacity="1.000000" stroke="none" 
	d="
M111.670120,217.101624 
	C111.454048,217.271088 110.911980,217.363525 110.195068,217.312134 
	C110.461525,217.120392 110.902824,217.072495 111.670120,217.101624 
z"/>
<path fill="#01C2FE" opacity="1.000000" stroke="none" 
	d="
M128.669418,217.103348 
	C128.454391,217.274384 127.912643,217.369461 127.194687,217.322540 
	C127.459885,217.129486 127.901283,217.078445 128.669418,217.103348 
z"/>
<path fill="#01C2FE" opacity="1.000000" stroke="none" 
	d="
M123.751030,217.117218 
	C123.997253,217.184433 123.642578,217.410736 123.642578,217.410736 
	C123.642578,217.410736 123.231346,217.371552 123.122009,217.278534 
	C123.176712,217.140350 123.340759,217.095184 123.751030,217.117218 
z"/>
</svg>